HIERARCHY
ROOT joint_0
{
	OFFSET 0.000000 0.000000 0.000000
	CHANNELS 6 Xposition Yposition Zposition Zrotation Yrotation Xrotation 
	JOINT joint_1
	{
		OFFSET 7.566162 2.250183 114.799927
		CHANNELS 3 Zrotation Yrotation Xrotation
		JOINT joint_2
		{
			OFFSET -5.201660 -0.414001 104.936035
			CHANNELS 3 Zrotation Yrotation Xrotation
			JOINT joint_3
			{
				OFFSET -6.923584 -0.419739 104.718018
				CHANNELS 3 Zrotation Yrotation Xrotation
				JOINT joint_4
				{
					OFFSET 3.108887 2.881104 149.449951
					CHANNELS 3 Zrotation Yrotation Xrotation
					JOINT joint_5
					{
						OFFSET 19.988770 5.920349 90.786987
						CHANNELS 3 Zrotation Yrotation Xrotation
						End Site
						{
							OFFSET 0.000000 0.000000 0.000000
						}
					}
				}
				JOINT joint_6
				{
					OFFSET 9.283936 -30.015930 84.410034
					CHANNELS 3 Zrotation Yrotation Xrotation
					JOINT joint_7
					{
						OFFSET 47.243164 -155.716736 -23.241089
						CHANNELS 3 Zrotation Yrotation Xrotation
						JOINT joint_8
						{
							OFFSET 31.323730 -15.356873 -268.798950
							CHANNELS 3 Zrotation Yrotation Xrotation
							JOINT joint_9
							{
								OFFSET 28.122314 -2.114624 -262.450012
								CHANNELS 3 Zrotation Yrotation Xrotation
								End Site
								{
									OFFSET 0.000000 0.000000 0.000000
								}
							}
						}
					}
				}
				JOINT joint_10
				{
					OFFSET -5.580566 33.311218 83.498047
					CHANNELS 3 Zrotation Yrotation Xrotation
					JOINT joint_11
					{
						OFFSET -22.773438 160.515381 -27.138062
						CHANNELS 3 Zrotation Yrotation Xrotation
						JOINT joint_12
						{
							OFFSET 27.004395 30.848877 -267.937988
							CHANNELS 3 Zrotation Yrotation Xrotation
							JOINT joint_13
							{
								OFFSET 32.625000 14.824585 -261.518005
								CHANNELS 3 Zrotation Yrotation Xrotation
								End Site
								{
									OFFSET 0.000000 0.000000 0.000000
								}
							}
						}
					}
				}
			}
		}
	}
	JOINT joint_14
	{
		OFFSET 20.623535 -83.447632 -106.174011
		CHANNELS 3 Zrotation Yrotation Xrotation
		JOINT joint_15
		{
			OFFSET 0.661865 -23.563843 -459.915039
			CHANNELS 3 Zrotation Yrotation Xrotation
			JOINT joint_16
			{
				OFFSET -23.461670 -28.727966 -444.760971
				CHANNELS 3 Zrotation Yrotation Xrotation
				JOINT joint_17
				{
					OFFSET 178.992920 54.047363 -80.113001
					CHANNELS 3 Zrotation Yrotation Xrotation
					End Site
					{
						OFFSET 0.000000 0.000000 0.000000
					}
				}
			}
		}
	}
	JOINT joint_18
	{
		OFFSET -19.571533 84.686279 -105.380005
		CHANNELS 3 Zrotation Yrotation Xrotation
		JOINT joint_19
		{
			OFFSET -22.949951 3.639404 -459.933044
			CHANNELS 3 Zrotation Yrotation Xrotation
			JOINT joint_20
			{
				OFFSET -33.690674 4.092651 -445.010971
				CHANNELS 3 Zrotation Yrotation Xrotation
				JOINT joint_21
				{
					OFFSET 187.419678 18.953857 -76.759001
					CHANNELS 3 Zrotation Yrotation Xrotation
					End Site
					{
						OFFSET 0.000000 0.000000 0.000000
					}
				}
			}
		}
	}
}
MOTION
Frames: 16
Frame Time: 0.016667
-3214.403809 927.581238 1108.942993 -11.605104 0.097413 -0.403238 -0.106995 -0.929235 1.807467 -0.217878 -0.041593 -0.352530 -0.176287 -0.078178 0.280794 0.068680 -0.353923 -0.210106 0.000000 0.000000 0.000000 1.757532 3.424610 -0.491480 0.057516 4.153234 1.067834 0.437736 -0.526488 3.497357 0.000000 0.000000 0.000000 4.704980 3.944581 0.125168 -0.292861 2.369104 -5.117416 -0.007846 0.844298 -0.529433 0.000000 0.000000 0.000000 0.195149 3.707583 0.319789 0.427850 -2.147465 -0.367554 0.321713 -1.785309 0.682563 0.000000 0.000000 0.000000 0.275072 1.256713 2.906959 0.346355 0.143014 0.729505 0.379315 -0.559757 0.211992 0.000000 0.000000 0.000000 
-3213.681396 927.636414 1109.067993 -11.541709 0.149498 -0.418005 -0.077161 -0.162263 1.720656 -0.183367 -0.093175 -0.350113 -0.142807 0.031227 0.260229 0.091677 -1.215295 -0.058235 0.000000 0.000000 0.000000 1.755455 3.732233 -0.589951 0.047143 4.455353 0.947830 0.564627 -1.999671 4.148714 0.000000 0.000000 0.000000 4.649382 4.044118 -0.054327 -0.209270 2.537717 -4.971017 -0.101981 -0.287791 -0.678843 0.000000 0.000000 0.000000 0.194614 3.691875 0.322329 0.426414 -2.136643 -0.373350 0.322797 -1.823335 0.694528 0.000000 0.000000 0.000000 0.240281 1.219788 2.917741 0.312768 0.169837 0.736542 0.346292 -0.595483 0.202079 0.000000 0.000000 0.000000 
-3212.458740 927.640625 1109.206055 -11.447350 0.281815 -0.450016 -0.031575 0.808199 1.595809 -0.137998 -0.138364 -0.340238 -0.099318 0.141599 0.234086 0.129789 -2.454523 0.164631 0.000000 0.000000 0.000000 1.832086 4.168746 -0.812652 0.072598 4.942372 0.869508 0.753865 -4.022147 5.020935 0.000000 0.000000 0.000000 4.423614 4.234235 -0.206888 -0.088494 2.822372 -4.871649 -0.222024 -1.856570 -0.883114 0.000000 0.000000 0.000000 0.183032 3.635135 0.331338 0.413614 -2.153473 -0.359590 0.311883 -1.868993 0.703440 0.000000 0.000000 0.000000 0.197115 1.129779 2.953183 0.271979 0.178830 0.731463 0.305470 -0.643701 0.190232 0.000000 0.000000 0.000000 
-3210.275635 927.575562 1109.151978 -11.335953 0.805791 -0.552484 -0.010758 1.318434 1.492479 -0.120816 -0.158025 -0.326558 -0.084051 0.198068 0.215125 0.162670 -3.705136 0.451524 0.000000 0.000000 0.000000 2.027788 4.572717 -1.047928 0.129428 5.418461 0.806294 0.915496 -5.410461 5.806475 0.000000 0.000000 0.000000 4.210233 4.522802 -0.226104 0.011305 3.164552 -4.899282 -0.320350 -3.097092 -1.137982 0.000000 0.000000 0.000000 0.116442 3.268234 0.400519 0.340491 -2.272506 -0.290073 0.236588 -1.926336 0.687123 0.000000 0.000000 0.000000 0.192169 0.701286 3.069508 0.276897 0.118817 0.675891 0.305521 -0.734639 0.199436 0.000000 0.000000 0.000000 
-3206.889404 927.436035 1108.744019 -11.210444 2.034851 -0.780350 -0.052696 0.931287 1.431957 -0.157259 -0.139602 -0.316051 -0.121609 0.174671 0.210299 0.175610 -4.996741 0.900886 0.000000 0.000000 0.000000 2.435854 4.887512 -1.351934 0.206565 5.883015 0.831236 1.011012 -5.616585 6.513575 0.000000 0.000000 0.000000 4.075636 5.025095 0.038023 0.054669 3.614572 -5.249405 -0.397294 -3.835134 -1.471655 0.000000 0.000000 0.000000 -0.030437 2.312251 0.596518 0.177121 -2.572028 -0.121662 0.060602 -1.957244 0.617920 0.000000 0.000000 0.000000 0.245577 -0.386206 3.321661 0.354861 -0.032841 0.526453 0.370065 -0.850380 0.237543 0.000000 0.000000 0.000000 
-3202.541504 927.227356 1108.145020 -11.070783 3.658416 -1.072879 -0.133815 0.082941 1.388547 -0.220113 -0.084610 -0.304926 -0.184811 0.077810 0.217573 0.186363 -6.286975 1.426601 0.000000 0.000000 0.000000 2.951776 5.165705 -1.692784 0.297719 6.350288 0.896981 1.070373 -5.178197 7.180189 0.000000 0.000000 0.000000 3.979654 5.631048 0.417229 0.063337 4.126276 -5.716767 -0.460840 -4.242695 -1.846798 0.000000 0.000000 0.000000 -0.234958 1.045631 0.857750 -0.049041 -2.974589 0.107127 -0.185379 -1.974484 0.513595 0.000000 0.000000 0.000000 0.333816 -1.817543 3.644982 0.474763 -0.253714 0.323486 0.471258 -0.978476 0.291851 0.000000 0.000000 0.000000 
-3197.496826 926.945923 1107.639038 -10.923047 5.065305 -1.318300 -0.202936 -0.602722 1.364822 -0.269354 -0.021980 -0.294735 -0.233680 -0.042155 0.231303 0.200366 -7.109881 1.751963 0.000000 0.000000 0.000000 3.363984 5.384578 -1.874273 0.365601 6.657102 0.827948 1.091251 -4.533801 7.603116 0.000000 0.000000 0.000000 3.924366 6.010744 0.588359 0.053764 4.482043 -5.818284 -0.490111 -4.089264 -2.163208 0.000000 0.000000 0.000000 -0.467977 0.018258 1.050621 -0.299054 -3.318331 0.307735 -0.449000 -2.072046 0.426008 0.000000 0.000000 0.000000 0.439078 -2.938659 3.929158 0.606476 -0.526857 0.152440 0.584760 -1.177639 0.358271 0.000000 0.000000 0.000000 
-3191.784912 926.510803 1107.425049 -10.765975 5.999721 -1.479876 -0.231397 -0.977985 1.395441 -0.285809 0.052646 -0.285687 -0.249570 -0.163239 0.242258 0.204691 -7.112159 1.705561 0.000000 0.000000 0.000000 3.627404 5.532336 -1.782563 0.384002 6.720668 0.522550 1.051548 -3.621499 7.612429 0.000000 0.000000 0.000000 3.896717 5.999172 0.409941 0.026965 4.571504 -5.289027 -0.465033 -3.008610 -2.411846 0.000000 0.000000 0.000000 -0.744130 -0.506265 1.117135 -0.577668 -3.605375 0.447172 -0.734563 -2.278201 0.361831 0.000000 0.000000 0.000000 0.579173 -3.445467 4.162672 0.765933 -0.890254 0.036748 0.726989 -1.507423 0.449450 0.000000 0.000000 0.000000 
-3185.376465 926.003967 1107.305054 -10.598276 6.732270 -1.603886 -0.240650 -1.220562 1.461171 -0.288033 0.123441 -0.283105 -0.250685 -0.262990 0.250845 0.202952 -6.666626 1.463141 0.000000 0.000000 0.000000 3.816600 5.610041 -1.540627 0.375665 6.618589 0.080421 0.980348 -2.498550 7.390447 0.000000 0.000000 0.000000 3.880107 5.752307 0.041344 -0.001813 4.497604 -4.405272 -0.397428 -1.371708 -2.608222 0.000000 0.000000 0.000000 -1.046358 -0.811006 1.121304 -0.877408 -3.831222 0.556664 -1.033196 -2.574652 0.319521 0.000000 0.000000 0.000000 0.738009 -3.659890 4.374086 0.941186 -1.304125 -0.052966 0.884574 -1.917742 0.554794 0.000000 0.000000 0.000000 
-3178.439209 925.669189 1106.968994 -10.418005 7.453511 -1.709442 -0.244041 -1.229823 1.489082 -0.289854 0.143941 -0.284094 -0.251948 -0.272720 0.247819 0.209236 -6.405049 1.269474 0.000000 0.000000 0.000000 3.900536 5.604395 -1.329160 0.359748 6.431748 -0.350520 0.936590 -1.786975 7.248951 0.000000 0.000000 0.000000 3.833180 5.427879 -0.337264 -0.003909 4.354720 -3.538880 -0.327416 -0.069889 -2.688767 0.000000 0.000000 0.000000 -1.297349 -1.180199 1.113324 -1.140152 -3.823305 0.633664 -1.267343 -3.010018 0.348036 0.000000 0.000000 0.000000 0.846142 -3.878670 4.524152 1.061424 -1.631996 -0.103771 0.990824 -2.328425 0.639067 0.000000 0.000000 0.000000 
-3171.304443 925.633850 1106.350952 -10.227440 8.178723 -1.789649 -0.237379 -0.814267 1.429161 -0.294574 0.075789 -0.284707 -0.257542 -0.156097 0.232476 0.228339 -6.615655 1.214069 0.000000 0.000000 0.000000 3.796673 5.468293 -1.264891 0.339324 6.179211 -0.632263 0.933614 -1.822070 7.256744 0.000000 0.000000 0.000000 3.742747 5.034759 -0.656495 0.017371 4.118951 -2.857907 -0.270944 0.549627 -2.540023 0.000000 0.000000 0.000000 -1.453151 -1.726615 1.104754 -1.335673 -3.414803 0.645944 -1.389260 -3.632371 0.482689 0.000000 0.000000 0.000000 0.871930 -4.148378 4.567176 1.089355 -1.852512 -0.073609 1.013826 -2.696280 0.685072 0.000000 0.000000 0.000000 
-3163.640869 925.770630 1105.517944 -10.022211 8.871810 -1.842919 -0.220662 -0.123011 1.319950 -0.303463 -0.038863 -0.281240 -0.268551 0.009926 0.211517 0.252239 -7.001669 1.202495 0.000000 0.000000 0.000000 3.580550 5.242340 -1.274977 0.302775 5.863636 -0.856079 0.950688 -2.269075 7.334838 0.000000 0.000000 0.000000 3.631447 4.582476 -0.932350 0.049974 3.811609 -2.253911 -0.222262 0.833809 -2.273028 0.000000 0.000000 0.000000 -1.557541 -2.312320 1.070316 -1.494151 -2.777206 0.623725 -1.449368 -4.383371 0.683557 0.000000 0.000000 0.000000 0.848628 -4.394529 4.540931 1.061323 -1.992150 0.002562 0.985842 -3.065026 0.710403 0.000000 0.000000 0.000000 
-3154.626465 925.933655 1104.362061 -9.791581 9.651569 -1.894206 -0.220214 0.426879 1.218759 -0.328395 -0.125907 -0.273786 -0.295637 0.128432 0.194576 0.272271 -7.317858 1.187732 0.000000 0.000000 0.000000 3.470008 5.042345 -1.267480 0.240649 5.545515 -1.209524 0.986235 -2.752193 7.565062 0.000000 0.000000 0.000000 3.517258 4.234395 -1.111168 0.095383 3.592907 -1.687527 -0.204059 0.925367 -2.160412 0.000000 0.000000 0.000000 -1.666332 -2.851962 1.009037 -1.648652 -2.241758 0.652534 -1.513682 -5.155192 0.889329 0.000000 0.000000 0.000000 0.801787 -4.739466 4.527866 1.016648 -1.980129 0.025262 0.936886 -3.484757 0.732299 0.000000 0.000000 0.000000 
-3144.077393 926.102905 1102.792969 -9.512568 10.613416 -1.967677 -0.260427 0.657360 1.165127 -0.384359 -0.168392 -0.265727 -0.353273 0.186732 0.183251 0.286604 -7.449150 1.138183 0.000000 0.000000 0.000000 3.564530 4.903443 -1.182141 0.138011 5.209185 -1.842033 1.047284 -3.166908 8.044622 0.000000 0.000000 0.000000 3.436394 4.056734 -1.188706 0.163713 3.532675 -1.099874 -0.236625 0.803695 -2.363479 0.000000 0.000000 0.000000 -1.805473 -3.377135 0.934633 -1.818659 -1.916832 0.787611 -1.607358 -5.926136 1.082605 0.000000 0.000000 0.000000 0.716802 -5.314933 4.579847 0.948143 -1.748545 -0.037939 0.857061 -3.984748 0.749705 0.000000 0.000000 0.000000 
-3132.177490 926.299438 1100.901001 -9.207226 11.665722 -2.034186 -0.321320 0.742499 1.118435 -0.454874 -0.187970 -0.254564 -0.425601 0.208028 0.173915 0.297607 -7.512903 1.087785 0.000000 0.000000 0.000000 3.771524 4.790665 -1.083256 0.006985 4.871607 -2.606584 1.123013 -3.627203 8.673302 0.000000 0.000000 0.000000 3.361491 3.978396 -1.187756 0.249905 3.561007 -0.527552 -0.298717 0.490327 -2.722747 0.000000 0.000000 0.000000 -1.951605 -3.859317 0.834644 -1.984843 -1.694636 0.974956 -1.703306 -6.699776 1.276487 0.000000 0.000000 0.000000 0.605923 -5.993378 4.643500 0.862773 -1.365645 -0.152999 0.756232 -4.509250 0.761109 0.000000 0.000000 0.000000 
-3118.656006 926.434998 1098.848999 -8.931973 12.659798 -2.045490 -0.367529 0.769532 1.019337 -0.502046 -0.189128 -0.231122 -0.475934 0.203191 0.158003 0.305321 -7.635205 1.085591 0.000000 0.000000 0.000000 4.033836 4.711637 -1.045305 -0.122872 4.627157 -3.266522 1.182341 -4.087975 9.231514 0.000000 0.000000 0.000000 3.213560 3.940487 -1.121626 0.334187 3.621112 -0.038856 -0.352553 0.192251 -3.033556 0.000000 0.000000 0.000000 -2.088305 -4.139214 0.678956 -2.123861 -1.579668 1.132622 -1.786835 -7.406048 1.456633 0.000000 0.000000 0.000000 0.533917 -6.524521 4.647565 0.821572 -0.962110 -0.319691 0.694645 -4.975364 0.782613 0.000000 0.000000 0.000000 
